<svg width="34" height="34" viewBox="0 0 34 34" fill="none" xmlns="http://www.w3.org/2000/svg">
<rect width="34" height="34" rx="16" fill="#F42525"/>
<path d="M24 14L22.75 11.25L20 10L22.75 8.75L24 6L25.25 8.75L28 10L25.25 11.25L24 14V14M24 28L22.75 25.25L20 24L22.75 22.75L24 20L25.25 22.75L28 24L25.25 25.25L24 28V28M14 25L11.5 19.5L6 17L11.5 14.5L14 9L16.5 14.5L22 17L16.5 19.5L14 25V25M14 20.15L15 18L17.15 17L15 16L14 13.85L13 16L10.85 17L13 18L14 20.15V20.15M14 17V17V17V17V17V17V17V17V17V17" fill="white"/>
</svg>
